#Comment line ignore any data following # character 
#Hierarchical Translation and Rotation (.htr) file 
[Header]	
#Header keywords are followed by a single value 
FileType HTR		#Single word string
DataType HTRS		#Translation followed by rotation and scale data
FileVersion 1		#integer
NumSegments 84		#integer
NumFrames 2		#integer
DataFrameRate 30		#integer, data frame rate in this file
EulerRotationOrder ZYX
CalibrationUnits mm
RotationUnits Degrees
GlobalAxisofGravity Y
BoneLengthAxis Y
ScaleFactor 1.00
[SegmentNames&Hierarchy]
#CHILD	PARENT
MASTER GLOBAL
root MASTER
chest root
L_mid_tent01 root
R_mid_tent01 root
spine01 root
Bip01_Neck chest
L_humerus chest
R_humerus chest
weapon_bone chest
Bip01_Head Bip01_Neck
eye_left_bone Bip01_Head
eye_right_bone Bip01_Head
L_forearm L_humerus
L_front_hand L_forearm
L_weapon_bone L_forearm
L_front_hand01_01 L_front_hand
L_front_hand02_01 L_front_hand
L_front_hand03_01 L_front_hand
L_front_hand01_02 L_front_hand01_01
L_front_hand02_02 L_front_hand02_01
L_front_hand03_02 L_front_hand03_01
R_forearm R_humerus
R_front_hand R_forearm
R_weapon_bone R_forearm
R_front_hand01_01 R_front_hand
R_front_hand02_01 R_front_hand
R_front_hand03_01 R_front_hand
R_front_hand01_02 R_front_hand01_01
R_front_hand02_02 R_front_hand02_01
R_front_hand03_02 R_front_hand03_01
null_rope01_connect L_mid_tent01
Rope1_Seg01 null_rope01_connect
Rope1_Seg02 Rope1_Seg01
Rope1_Seg03 Rope1_Seg02
Rope1_Seg04 Rope1_Seg03
Rope1_Seg05 Rope1_Seg04
Rope1_Seg06 Rope1_Seg05
Rope1_Seg07 Rope1_Seg06
Rope1_Seg09 Rope1_Seg07
L_mid_hand01 Rope1_Seg09
L_mid_hand02 Rope1_Seg09
L_mid_hand03 Rope1_Seg09
null_rope02_connect R_mid_tent01
Rope2_Seg01 null_rope02_connect
Rope2_Seg02 Rope2_Seg01
Rope2_Seg03 Rope2_Seg02
Rope2_Seg04 Rope2_Seg03
Rope2_Seg05 Rope2_Seg04
Rope2_Seg06 Rope2_Seg05
Rope2_Seg07 Rope2_Seg06
Rope2_Seg09 Rope2_Seg07
R_mid_hand01 Rope2_Seg09
R_mid_hand02 Rope2_Seg09
R_mid_hand03 Rope2_Seg09
spine02 spine01
spine03 spine02
pelvis spine03
null_rope03_connect pelvis
null_rope04_connect pelvis
Rope3_Seg01 null_rope03_connect
Rope3_Seg02 Rope3_Seg01
Rope3_Seg03 Rope3_Seg02
Rope3_Seg04 Rope3_Seg03
Rope3_Seg05 Rope3_Seg04
Rope3_Seg06 Rope3_Seg05
Rope3_Seg07 Rope3_Seg06
Rope3_Seg08 Rope3_Seg07
Rope3_Seg09 Rope3_Seg08
R_rear_hand01 Rope3_Seg09
R_rear_hand02 Rope3_Seg09
R_rear_hand03 Rope3_Seg09
Rope4_Seg01 null_rope04_connect
Rope4_Seg02 Rope4_Seg01
Rope4_Seg03 Rope4_Seg02
Rope4_Seg04 Rope4_Seg03
Rope4_Seg05 Rope4_Seg04
Rope4_Seg06 Rope4_Seg05
Rope4_Seg07 Rope4_Seg06
Rope4_Seg08 Rope4_Seg07
Rope4_Seg09 Rope4_Seg08
L_rear_hand01 Rope4_Seg09
L_rear_hand02 Rope4_Seg09
L_rear_hand03 Rope4_Seg09
[BasePosition]
#SegmentName Tx, Ty, Tz, Rx, Ry, Rz, BoneLength
MASTER 0.000000 0.000000 0.000000 -90.000000 0.000000 0.000000 10.000000 
root 0.000000 0.000000 0.000000 0.000000 0.000000 0.000000 10.000000 
chest 0.000000 0.000000 0.000000 0.000000 0.000000 0.000000 10.000000 
L_mid_tent01 0.000000 0.000000 0.000000 0.000000 0.000000 0.000000 10.000000 
R_mid_tent01 0.000000 0.000000 0.000000 0.000000 0.000000 0.000000 10.000000 
spine01 0.000000 0.000000 0.000000 0.000000 0.000000 0.000000 10.000000 
Bip01_Neck 0.000000 0.000000 0.000000 0.000000 0.000000 0.000000 10.000000 
L_humerus 0.000000 0.000000 0.000000 0.000000 0.000000 0.000000 10.000000 
R_humerus 0.000000 0.000000 0.000000 0.000000 0.000000 0.000000 10.000000 
weapon_bone 0.000000 0.000000 0.000000 0.000000 0.000000 0.000000 10.000000 
Bip01_Head 0.000000 0.000000 0.000000 0.000000 0.000000 0.000000 10.000000 
eye_left_bone 0.000000 0.000000 0.000000 0.000000 0.000000 0.000000 10.000000 
eye_right_bone 0.000000 0.000000 0.000000 0.000000 0.000000 0.000000 10.000000 
L_forearm 0.000000 0.000000 0.000000 0.000000 0.000000 0.000000 10.000000 
L_front_hand 0.000000 0.000000 0.000000 0.000000 0.000000 0.000000 10.000000 
L_weapon_bone 0.000000 0.000000 0.000000 0.000000 0.000000 0.000000 10.000000 
L_front_hand01_01 0.000000 0.000000 0.000000 0.000000 0.000000 0.000000 10.000000 
L_front_hand02_01 0.000000 0.000000 0.000000 0.000000 0.000000 0.000000 10.000000 
L_front_hand03_01 0.000000 0.000000 0.000000 0.000000 0.000000 0.000000 10.000000 
L_front_hand01_02 0.000000 0.000000 0.000000 0.000000 0.000000 0.000000 10.000000 
L_front_hand02_02 0.000000 0.000000 0.000000 0.000000 0.000000 0.000000 10.000000 
L_front_hand03_02 0.000000 0.000000 0.000000 0.000000 0.000000 0.000000 10.000000 
R_forearm 0.000000 0.000000 0.000000 0.000000 0.000000 0.000000 10.000000 
R_front_hand 0.000000 0.000000 0.000000 0.000000 0.000000 0.000000 10.000000 
R_weapon_bone 0.000000 0.000000 0.000000 0.000000 0.000000 0.000000 10.000000 
R_front_hand01_01 0.000000 0.000000 0.000000 0.000000 0.000000 0.000000 10.000000 
R_front_hand02_01 0.000000 0.000000 0.000000 0.000000 0.000000 0.000000 10.000000 
R_front_hand03_01 0.000000 0.000000 0.000000 0.000000 0.000000 0.000000 10.000000 
R_front_hand01_02 0.000000 0.000000 0.000000 0.000000 0.000000 0.000000 10.000000 
R_front_hand02_02 0.000000 0.000000 0.000000 0.000000 0.000000 0.000000 10.000000 
R_front_hand03_02 0.000000 0.000000 0.000000 0.000000 0.000000 0.000000 10.000000 
null_rope01_connect 0.000000 0.000000 0.000000 0.000000 0.000000 0.000000 10.000000 
Rope1_Seg01 0.000000 0.000000 0.000000 0.000000 0.000000 0.000000 10.000000 
Rope1_Seg02 0.000000 0.000000 0.000000 0.000000 0.000000 0.000000 10.000000 
Rope1_Seg03 0.000000 0.000000 0.000000 0.000000 0.000000 0.000000 10.000000 
Rope1_Seg04 0.000000 0.000000 0.000000 0.000000 0.000000 0.000000 10.000000 
Rope1_Seg05 0.000000 0.000000 0.000000 0.000000 0.000000 0.000000 10.000000 
Rope1_Seg06 0.000000 0.000000 0.000000 0.000000 0.000000 0.000000 10.000000 
Rope1_Seg07 0.000000 0.000000 0.000000 0.000000 0.000000 0.000000 10.000000 
Rope1_Seg09 0.000000 0.000000 0.000000 0.000000 0.000000 0.000000 10.000000 
L_mid_hand01 0.000000 0.000000 0.000000 0.000000 0.000000 0.000000 10.000000 
L_mid_hand02 0.000000 0.000000 0.000000 0.000000 0.000000 0.000000 10.000000 
L_mid_hand03 0.000000 0.000000 0.000000 0.000000 0.000000 0.000000 10.000000 
null_rope02_connect 0.000000 0.000000 0.000000 0.000000 0.000000 0.000000 10.000000 
Rope2_Seg01 0.000000 0.000000 0.000000 0.000000 0.000000 0.000000 10.000000 
Rope2_Seg02 0.000000 0.000000 0.000000 0.000000 0.000000 0.000000 10.000000 
Rope2_Seg03 0.000000 0.000000 0.000000 0.000000 0.000000 0.000000 10.000000 
Rope2_Seg04 0.000000 0.000000 0.000000 0.000000 0.000000 0.000000 10.000000 
Rope2_Seg05 0.000000 0.000000 0.000000 0.000000 0.000000 0.000000 10.000000 
Rope2_Seg06 0.000000 0.000000 0.000000 0.000000 0.000000 0.000000 10.000000 
Rope2_Seg07 0.000000 0.000000 0.000000 0.000000 0.000000 0.000000 10.000000 
Rope2_Seg09 0.000000 0.000000 0.000000 0.000000 0.000000 0.000000 10.000000 
R_mid_hand01 0.000000 0.000000 0.000000 0.000000 0.000000 0.000000 10.000000 
R_mid_hand02 0.000000 0.000000 0.000000 0.000000 0.000000 0.000000 10.000000 
R_mid_hand03 0.000000 0.000000 0.000000 0.000000 0.000000 0.000000 10.000000 
spine02 0.000000 0.000000 0.000000 0.000000 0.000000 0.000000 10.000000 
spine03 0.000000 0.000000 0.000000 0.000000 0.000000 0.000000 10.000000 
pelvis 0.000000 0.000000 0.000000 0.000000 0.000000 0.000000 10.000000 
null_rope03_connect 0.000000 0.000000 0.000000 0.000000 0.000000 0.000000 10.000000 
null_rope04_connect 0.000000 0.000000 0.000000 0.000000 0.000000 0.000000 10.000000 
Rope3_Seg01 0.000000 0.000000 0.000000 0.000000 0.000000 0.000000 10.000000 
Rope3_Seg02 0.000000 0.000000 0.000000 0.000000 0.000000 0.000000 10.000000 
Rope3_Seg03 0.000000 0.000000 0.000000 0.000000 0.000000 0.000000 10.000000 
Rope3_Seg04 0.000000 0.000000 0.000000 0.000000 0.000000 0.000000 10.000000 
Rope3_Seg05 0.000000 0.000000 0.000000 0.000000 0.000000 0.000000 10.000000 
Rope3_Seg06 0.000000 0.000000 0.000000 0.000000 0.000000 0.000000 10.000000 
Rope3_Seg07 0.000000 0.000000 0.000000 0.000000 0.000000 0.000000 10.000000 
Rope3_Seg08 0.000000 0.000000 0.000000 0.000000 0.000000 0.000000 10.000000 
Rope3_Seg09 0.000000 0.000000 0.000000 0.000000 0.000000 0.000000 10.000000 
R_rear_hand01 0.000000 0.000000 0.000000 0.000000 0.000000 0.000000 10.000000 
R_rear_hand02 0.000000 0.000000 0.000000 0.000000 0.000000 0.000000 10.000000 
R_rear_hand03 0.000000 0.000000 0.000000 0.000000 0.000000 0.000000 10.000000 
Rope4_Seg01 0.000000 0.000000 0.000000 0.000000 0.000000 0.000000 10.000000 
Rope4_Seg02 0.000000 0.000000 0.000000 0.000000 0.000000 0.000000 10.000000 
Rope4_Seg03 0.000000 0.000000 0.000000 0.000000 0.000000 0.000000 10.000000 
Rope4_Seg04 0.000000 0.000000 0.000000 0.000000 0.000000 0.000000 10.000000 
Rope4_Seg05 0.000000 0.000000 0.000000 0.000000 0.000000 0.000000 10.000000 
Rope4_Seg06 0.000000 0.000000 0.000000 0.000000 0.000000 0.000000 10.000000 
Rope4_Seg07 0.000000 0.000000 0.000000 0.000000 0.000000 0.000000 10.000000 
Rope4_Seg08 0.000000 0.000000 0.000000 0.000000 0.000000 0.000000 10.000000 
Rope4_Seg09 0.000000 0.000000 0.000000 0.000000 0.000000 0.000000 10.000000 
L_rear_hand01 0.000000 0.000000 0.000000 0.000000 0.000000 0.000000 10.000000 
L_rear_hand02 0.000000 0.000000 0.000000 0.000000 0.000000 0.000000 10.000000 
L_rear_hand03 0.000000 0.000000 0.000000 0.000000 0.000000 0.000000 10.000000 
#Beginning of Data. Separated by tabs
#Fr	Tx	Ty	Tz	Rx	Ry	Rz	SF
[MASTER]
19 0.000000 0.000000 0.000000 0.001660 0.001660 0.001660 0.000000
20 0.000000 0.000000 0.000000 0.001660 0.001660 0.001660 0.000000
[root]
19 -26.152147 -57.666206 1313.018555 -68.359642 -11.936714 -99.054558 1314.544434
20 -24.269848 -58.671921 1335.150879 -72.508446 -14.660468 -97.307701 1336.659668
[chest]
19 -84.512650 -34.090519 0.000000 -0.113362 -1.472199 171.985565 91.129311
20 -84.512650 -34.090519 0.000000 -1.017814 -1.889480 178.526169 91.129311
[L_mid_tent01]
19 27.299164 22.178932 -249.918594 4.507673 15.639059 82.209305 252.381561
20 27.299158 22.178949 -249.918594 4.339793 22.516075 81.965675 252.381561
[R_mid_tent01]
19 23.228794 24.509907 226.238495 164.482910 -10.125010 77.225128 228.744751
20 23.228794 24.509907 226.238495 164.220261 -21.301781 79.749718 228.744751
[spine01]
19 -0.361383 -0.195265 0.000000 0.002005 0.001220 27.342941 0.410763
20 -0.361383 -0.195265 0.000000 0.001938 0.001324 21.316652 0.410763
[Bip01_Neck]
19 165.484543 71.581718 0.000119 176.643677 -1.657967 43.431911 180.302734
20 165.484543 71.581718 0.000119 176.643677 -1.657967 43.431911 180.302734
[L_humerus]
19 -13.983130 -135.272980 -120.471481 164.365295 21.876194 -67.533813 181.680161
20 -13.983130 -135.272980 -120.471481 166.010666 24.761557 -70.815659 181.680161
[R_humerus]
19 -13.983309 -135.273102 125.287651 -177.084381 -14.953926 -85.832062 184.909012
20 -13.983309 -135.273102 125.287651 -176.937653 -19.863857 -86.063141 184.909012
[weapon_bone]
19 235.964890 -300.705902 0.000000 0.000000 -89.951546 -128.212341 382.234833
20 235.964890 -300.705902 0.000000 0.000000 -89.951546 -128.212341 382.234833
[Bip01_Head]
19 213.432846 185.747375 11.366769 4.987260 10.061254 -43.762234 283.169312
20 213.436691 185.736816 11.503499 4.970813 8.175846 -43.795578 283.170837
[eye_left_bone]
19 -24.626970 125.451866 -64.772606 0.000000 -90.000000 -99.840431 143.318359
20 -24.626970 125.451866 -64.772606 0.000000 -90.000000 -99.840431 143.318359
[eye_right_bone]
19 -24.626970 125.451866 64.327362 0.000000 -89.965736 80.156380 143.117676
20 -24.626970 125.451866 64.327362 0.000000 -89.965736 80.156380 143.117676
[L_forearm]
19 322.776093 0.000000 -0.000119 0.000111 -0.002345 -95.420288 322.776093
20 322.776093 0.000000 -0.000119 0.000112 -0.002345 -95.473755 322.776093
[L_front_hand]
19 241.149185 -0.042021 -3.300071 -178.659485 -1.831598 -27.651623 241.171753
20 241.149185 -0.042021 -3.300071 -178.661530 -1.833086 -27.524275 241.171753
[L_weapon_bone]
19 156.183838 0.000000 0.000000 0.000014 0.000007 0.000001 156.183838
20 156.183838 0.000000 0.000000 0.000014 0.000007 0.000001 156.183838
[L_front_hand01_01]
19 86.095154 20.947098 -0.655860 -0.366594 -0.477154 75.385574 88.609184
20 86.095154 20.947098 -0.655860 -0.366594 -0.477154 75.385582 88.609184
[L_front_hand02_01]
19 86.935165 -11.437475 24.513514 154.399811 -59.883835 -61.369606 91.046425
20 86.935165 -11.437475 24.513514 154.399796 -59.883835 -61.369587 91.046425
[L_front_hand03_01]
19 86.637497 -14.123976 -20.424902 -153.913849 58.118122 -62.702866 90.126129
20 86.637497 -14.123976 -20.424902 -153.913849 58.118130 -62.702866 90.126129
[L_front_hand01_02]
19 71.020905 -0.000179 0.000030 0.000334 -0.002323 -106.367340 71.020905
20 71.020905 -0.000179 0.000030 0.000334 -0.002323 -106.379684 71.020905
[L_front_hand02_02]
19 71.020927 -0.000119 0.000060 0.000334 -0.002323 -106.367340 71.020927
20 71.020927 -0.000119 0.000060 0.000334 -0.002323 -106.379684 71.020927
[L_front_hand03_02]
19 71.020905 -0.000060 0.000060 0.000334 -0.002323 -106.367340 71.020905
20 71.020905 -0.000060 0.000060 0.000334 -0.002323 -106.379684 71.020905
[R_forearm]
19 322.776428 -0.000060 0.000030 0.213163 0.008445 -93.920235 322.776428
20 322.776428 -0.000060 0.000030 0.213158 0.008571 -93.987869 322.776428
[R_front_hand]
19 238.847015 -0.006795 2.210259 -2.583688 -10.655491 -26.582558 238.857239
20 238.847015 -0.006795 2.210259 -2.612901 -10.650835 -26.436996 238.857239
[R_weapon_bone]
19 155.664093 0.002503 -0.000030 0.003487 0.001180 -90.988930 155.664078
20 155.664093 0.002503 -0.000030 0.003487 0.001180 -90.988930 155.664078
[R_front_hand01_01]
19 87.624611 14.231146 22.918642 -154.633499 -59.950619 61.746044 91.683487
20 87.624611 14.231146 22.918642 -154.633499 -59.950619 61.746044 91.683487
[R_front_hand02_01]
19 89.356956 14.367283 -19.491137 154.602661 58.302849 63.744389 92.579636
20 89.356956 14.367283 -19.491137 154.602661 58.302849 63.744389 92.579636
[R_front_hand03_01]
19 87.286232 -22.307278 -0.143439 0.162155 -0.423168 -75.767921 90.091743
20 87.286232 -22.307278 -0.143439 0.162155 -0.423168 -75.767921 90.091743
[R_front_hand01_02]
19 71.020905 0.000060 0.000119 0.002323 -0.000334 106.381714 71.020905
20 71.020905 0.000060 0.000119 0.002323 -0.000334 106.381714 71.020905
[R_front_hand02_02]
19 71.020844 -0.000030 -0.000119 0.002323 -0.000334 106.381714 71.020836
20 71.020844 -0.000030 -0.000119 0.002323 -0.000334 106.381714 71.020836
[R_front_hand03_02]
19 71.020905 0.000000 0.000030 0.002323 -0.000334 106.381714 71.020905
20 71.020905 0.000000 0.000030 0.002323 -0.000334 106.381714 71.020905
[null_rope01_connect]
19 328.732483 0.000000 -0.000238 -60.417915 -73.846069 80.149437 328.732483
20 328.732483 0.000000 -0.000238 -98.241249 -74.325470 120.516174 328.732483
[Rope1_Seg01]
19 -0.000038 -0.000114 0.000107 119.264214 33.143677 153.867676 0.000161
20 -0.000038 -0.000114 0.000108 117.056465 21.852604 155.523453 0.000162
[Rope1_Seg02]
19 139.999863 -0.000179 0.000000 0.921789 -9.712996 2.668512 139.999863
20 139.999863 -0.000179 0.000000 0.634689 -7.409683 2.012508 139.999863
[Rope1_Seg03]
19 139.999924 0.000060 -0.000060 -0.077975 -12.344916 3.358430 139.999924
20 139.999924 0.000060 -0.000060 0.151388 -7.495496 2.103244 139.999924
[Rope1_Seg04]
19 139.999924 -0.000060 -0.000119 -1.779038 -13.920590 4.211059 139.999924
20 139.999924 -0.000060 -0.000119 -0.428934 -8.416378 2.413758 139.999924
[Rope1_Seg05]
19 139.999832 0.000119 -0.000060 -0.457108 -3.985326 2.799016 139.999832
20 139.999832 0.000119 -0.000060 -0.719904 -6.547764 2.133493 139.999832
[Rope1_Seg06]
19 139.999954 0.000119 -0.000060 -0.227806 -1.875281 1.326096 139.999954
20 139.999954 0.000119 -0.000060 -0.403041 -2.873820 0.946812 139.999954
[Rope1_Seg07]
19 139.999985 0.000060 0.000000 -0.261601 -1.534666 0.821282 139.999985
20 139.999985 0.000060 0.000000 -0.288835 -1.797299 0.545340 139.999985
[Rope1_Seg09]
19 121.602913 0.000119 -0.000089 -89.793175 -1.359789 0.847147 121.602913
20 121.602913 0.000119 -0.000089 -89.793175 -1.359789 0.847147 121.602913
[L_mid_hand01]
19 103.859421 1.038730 8.195221 130.544373 -67.584534 -38.866943 104.187431
20 103.859421 1.038730 8.195221 130.544373 -67.584534 -38.866943 104.187431
[L_mid_hand02]
19 105.572853 -4.139662 -10.864139 -168.923172 43.409309 -73.498886 106.211075
20 105.572853 -4.139662 -10.864139 -168.923172 43.409309 -73.498886 106.211075
[L_mid_hand03]
19 104.641464 17.579376 -3.913581 -6.012627 17.808174 74.893669 106.179977
20 104.641464 17.579376 -3.913581 -6.012626 17.808172 74.893661 106.179977
[null_rope02_connect]
19 328.732849 0.000179 -0.000119 -146.741028 63.207836 1.949591 328.732849
20 328.732849 0.000179 -0.000119 -141.541122 54.925705 5.594831 328.732849
[Rope2_Seg01]
19 0.000042 0.000108 0.000000 -43.816925 -4.365266 24.148050 0.000116
20 0.000049 0.000109 0.000000 -47.318348 4.077369 31.212404 0.000119
[Rope2_Seg02]
19 139.999741 -0.000060 -0.000119 -0.424794 2.687264 -0.042932 139.999756
20 139.999741 -0.000060 -0.000119 -0.316040 0.449449 0.964852 139.999756
[Rope2_Seg03]
19 140.000107 0.000030 0.000000 -0.741650 3.973725 -0.029010 140.000107
20 140.000107 0.000030 0.000000 -0.512435 0.730969 1.600895 140.000107
[Rope2_Seg04]
19 139.999802 0.000000 -0.000060 2.191472 4.913911 -6.745863 139.999802
20 139.999802 0.000000 -0.000060 1.770364 -9.850243 -3.005842 139.999802
[Rope2_Seg05]
19 139.999985 -0.000060 0.000119 -8.380306 15.290626 3.904730 139.999985
20 139.999985 -0.000060 0.000119 -4.123005 43.439735 40.623306 139.999985
[Rope2_Seg06]
19 139.999893 -0.000030 -0.000119 -29.238466 17.442310 51.178749 139.999893
20 139.999893 -0.000030 -0.000119 -16.204529 19.271530 26.646030 139.999893
[Rope2_Seg07]
19 139.999893 0.000060 -0.000060 -4.252300 -3.035397 13.596843 139.999893
20 139.999893 0.000060 -0.000060 -3.673109 1.588438 5.753085 139.999893
[Rope2_Seg09]
19 121.338966 0.000089 -0.000060 33.793236 -1.359788 -0.847141 121.338966
20 121.338966 0.000089 -0.000060 33.793236 -1.359788 -0.847141 121.338966
[R_mid_hand01]
19 104.680779 11.144459 -10.335981 -16.212063 45.237247 70.462852 105.778534
20 104.680779 11.144459 -10.335981 -16.212063 45.237247 70.462852 105.778534
[R_mid_hand02]
19 104.070427 2.443552 8.231699 49.067368 -67.749771 39.286453 104.424065
20 104.070427 2.443552 8.231699 49.067368 -67.749771 39.286453 104.424065
[R_mid_hand03]
19 106.028137 -11.221827 -5.996406 -177.101105 15.551026 -76.585571 106.788818
20 106.028137 -11.221827 -5.996406 -177.101105 15.551026 -76.585571 106.788818
[spine02]
19 129.756927 0.001550 0.000119 -1.090961 -3.921067 7.710442 129.756927
20 129.756927 0.001550 0.000119 -1.071385 -3.924387 7.427108 129.756927
[spine03]
19 78.613922 0.082503 -4.898935 0.998528 4.181973 3.636762 78.766457
20 78.613937 0.082424 -4.898940 1.011604 4.165411 3.805430 78.766479
[pelvis]
19 169.435242 0.051022 0.000000 0.025372 -0.179665 -11.904271 169.435257
20 169.435242 0.051022 0.000000 0.025309 -0.184671 -11.546317 169.435257
[null_rope03_connect]
19 -1.257226 -2.466202 137.391083 -11.304297 -68.798943 88.234535 137.418976
20 -1.257226 -2.466202 137.391083 -9.272404 -73.225128 94.091064 137.418976
[null_rope04_connect]
19 -1.259640 -2.480268 -137.844437 -11.304297 -68.798943 88.234535 137.872513
20 -1.259640 -2.480268 -137.844437 -9.272404 -73.225128 94.091064 137.872513
[Rope3_Seg01]
19 -0.000018 0.000009 0.000116 -141.766113 -35.866093 -62.902580 0.000117
20 -0.000019 0.000012 0.000105 -138.513245 -30.056507 -65.166313 0.000108
[Rope3_Seg02]
19 139.999924 -0.000119 0.000060 -4.932415 4.248550 -11.220415 139.999924
20 139.999924 -0.000119 0.000060 -10.152225 7.934153 -20.779387 139.999924
[Rope3_Seg03]
19 139.999924 -0.000119 0.000119 -16.733946 12.127549 -21.136515 139.999924
20 139.999924 -0.000119 0.000119 -33.051380 21.737278 -33.461197 139.999924
[Rope3_Seg04]
19 139.999924 0.000119 0.000000 -28.573223 22.796450 -23.587774 139.999924
20 139.999924 0.000119 0.000000 -19.613199 21.700056 -13.939892 139.999924
[Rope3_Seg05]
19 139.999924 -0.000238 0.000060 -45.718826 29.862995 -39.933811 139.999924
20 139.999924 -0.000238 0.000060 -27.610256 29.682808 -24.705910 139.999924
[Rope3_Seg06]
19 139.999893 -0.000119 -0.000060 -10.568978 18.996815 -5.528504 139.999893
20 139.999893 -0.000119 -0.000060 -10.687188 24.718874 -7.966716 139.999893
[Rope3_Seg07]
19 139.999771 0.000060 -0.000119 -1.863999 6.639805 -0.220432 139.999771
20 139.999771 0.000060 -0.000119 -1.432109 8.825505 -0.709112 139.999771
[Rope3_Seg08]
19 139.999985 -0.000060 0.000000 -0.443655 3.236591 -0.000981 139.999985
20 139.999985 -0.000060 0.000000 -0.145731 4.270491 -0.236379 139.999985
[Rope3_Seg09]
19 90.185997 -0.000179 -0.000060 89.793228 -1.359877 -0.847183 90.185997
20 90.185997 -0.000179 -0.000060 89.793228 -1.359877 -0.847183 90.185997
[R_rear_hand01]
19 103.366196 -6.073594 -10.757982 -177.714203 24.565960 -73.910950 104.101845
20 103.366196 -6.073594 -10.757982 -177.714203 24.565960 -73.910950 104.101845
[R_rear_hand02]
19 100.509819 12.039542 -7.992327 -12.874829 36.868488 72.167213 101.543350
20 100.509819 12.039542 -7.992327 -12.874829 36.868488 72.167213 101.543350
[R_rear_hand03]
19 101.539970 5.215704 5.435467 71.484581 -71.816628 21.513813 101.819031
20 101.539970 5.215704 5.435467 71.484581 -71.816628 21.513813 101.819031
[Rope4_Seg01]
19 0.000013 -0.000038 -0.000326 63.484562 -25.080933 -136.534164 0.000329
20 0.000013 -0.000038 -0.000310 66.094826 -30.313791 -133.863663 0.000313
[Rope4_Seg02]
19 139.999985 0.000060 0.000119 -14.392444 2.312322 -17.355415 139.999985
20 139.999985 0.000060 0.000119 -16.593206 8.738837 -20.547665 139.999985
[Rope4_Seg03]
19 139.999924 0.000000 -0.000238 -12.085212 10.159522 -11.711312 139.999924
20 139.999924 0.000000 -0.000238 -12.713227 25.087557 -14.938955 139.999924
[Rope4_Seg04]
19 139.999985 0.000000 0.000119 -26.979345 11.401897 -34.219349 139.999985
20 139.999985 0.000000 0.000119 -15.491213 3.222425 -42.343376 139.999985
[Rope4_Seg05]
19 139.999802 -0.000060 -0.000119 -12.541961 11.258059 -17.895538 139.999802
20 139.999802 -0.000060 -0.000119 -5.350274 1.860635 -11.622484 139.999802
[Rope4_Seg06]
19 139.999924 0.000000 0.000060 -2.255448 4.106807 -3.703086 139.999924
20 139.999924 0.000000 0.000060 -1.770570 1.476653 -3.504163 139.999924
[Rope4_Seg07]
19 139.999802 0.000000 0.000000 -1.044995 2.417307 -2.004231 139.999802
20 139.999802 0.000000 0.000000 -0.990225 0.953169 -2.088976 139.999802
[Rope4_Seg08]
19 139.999924 0.000000 0.000119 -2.069603 1.391425 -1.111797 139.999924
20 139.999924 0.000000 0.000119 -2.101680 0.578010 -1.210981 139.999924
[Rope4_Seg09]
19 90.185791 0.000060 0.000060 -135.617828 2.228885 0.850567 90.185791
20 90.185791 0.000060 0.000060 -135.617828 2.228885 0.850567 90.185791
[L_rear_hand01]
19 101.696655 -8.392275 -7.654577 -12.874829 -36.868488 107.832764 102.329041
20 101.696655 -8.392275 -7.654577 -12.874829 -36.868488 107.832764 102.329041
[L_rear_hand02]
19 102.726799 -1.568258 5.773216 71.484581 71.816628 158.486160 102.900848
20 102.726799 -1.568258 5.773216 71.484581 71.816628 158.486160 102.900848
[L_rear_hand03]
19 104.552910 9.721220 -10.420293 -177.714203 -24.565960 -106.089035 105.519653
20 104.552910 9.721220 -10.420293 -177.714203 -24.565960 -106.089035 105.519653
